<svg width="325" height="347" viewBox="0 0 325 347" fill="none" xmlns="http://www.w3.org/2000/svg">
<path d="M324.84 127.787C324.757 105.869 317.194 84.6413 303.408 67.604C308.09 48.1307 306.627 27.6826 299.231 9.06798C297.773 5.48464 294.783 2.74505 291.09 1.59919C285.861 -0.192546 266.074 -3.55189 225.757 22.5778V22.5831C208.413 18.0049 190.528 15.8435 172.596 16.1612C154.637 15.8383 136.721 17.9997 119.356 22.5831C77.9918 -4.14628 56.4865 0.181731 52.1585 1.4524C48.4449 2.6451 45.4606 5.44199 44.0178 9.06692C36.6012 27.6189 35.0855 48.0096 39.6897 67.4576C25.4497 84.4056 17.8617 105.952 18.335 128.083C18.335 210.667 65.595 235.604 108.903 244.416C106.679 249.854 105.148 255.547 104.351 261.364C104.273 261.984 104.273 262.614 104.351 263.234V286.078C64.9296 289.364 56.4909 266.291 55.6682 263.677V263.682C55.4755 263.073 55.2516 262.474 54.9912 261.885C47.3766 246.354 33.9752 234.421 17.6578 228.661C10.8141 226.375 3.40714 230.067 1.12181 236.911C-1.16459 243.755 2.52808 251.162 9.37181 253.452C18.4134 256.718 25.9558 263.166 30.5798 271.592C35.809 288.54 57.1638 315.347 104.2 312.358V333.863C104.2 341.082 110.049 346.931 117.268 346.931C124.481 346.931 130.335 341.082 130.335 333.863V264.202C131.325 256.592 134.637 249.478 139.814 243.816C143.523 240.347 144.867 235.04 143.262 230.223C141.658 225.41 137.393 221.968 132.351 221.416C86.8042 216.113 44.6949 201.109 44.6949 127.561H44.6897C44.0803 109.613 51.0126 92.2276 63.8043 79.6236C67.2731 75.8944 68.4189 70.5663 66.7939 65.7383C62.3929 52.9571 62.1065 39.1183 65.971 26.1649C82.0017 29.7847 97.059 36.842 110.096 46.8476C113.492 49.0924 117.727 49.6705 121.596 48.4153C138.19 43.3632 155.482 41.0195 172.82 41.4727C190.127 41.0195 207.399 43.3633 223.966 48.4153C227.835 49.681 232.075 49.1028 235.466 46.8476C248.023 37.2225 262.398 30.2383 277.726 26.3116C281.533 39.4105 281.194 53.3636 276.752 66.2596C275.267 70.6399 276.236 75.4836 279.293 78.9523C291.653 92.1501 298.653 109.483 298.929 127.562C298.929 200.958 254.653 216.192 211.273 221.416C205.956 222.01 201.544 225.797 200.159 230.963C198.773 236.13 200.695 241.614 205.003 244.791C209.633 248.302 215.008 258.155 215.008 274.655V333.791C215.008 341.01 220.857 346.859 228.07 346.859C235.289 346.859 241.138 341.01 241.138 333.791V274.655C241.273 264.254 239.372 253.931 235.539 244.265C270.632 236.801 324.842 213.729 324.842 127.786L324.84 127.787Z" fill="white"/>
</svg>
